<svg width="79" height="78" viewBox="0 0 79 78" fill="none" xmlns="http://www.w3.org/2000/svg">
<g clip-path="url(#clip0_167_249)">
<path d="M35.3435 0C36.47 0.151986 37.601 0.27268 38.7231 0.455957C47.8204 1.95346 55.0402 6.53092 60.4225 13.9559C64.9243 20.1649 66.8108 27.1965 66.3816 34.8226C66.091 40.0214 64.6024 44.8895 61.9291 49.3686C61.5849 49.9497 61.5759 50.2671 62.0766 50.7633C67.1058 55.752 72.1038 60.7764 77.1241 65.7696C77.9064 66.5474 78.6395 67.3342 78.9346 68.4294V69.3457C78.6351 70.4722 77.8796 71.2724 77.0704 72.0591C75.47 73.6148 73.9053 75.2106 72.3183 76.7841C70.6911 78.3978 68.8582 78.4023 67.2444 76.7886C62.0364 71.5853 56.8194 66.382 51.6337 61.1564C51.1598 60.6826 50.8514 60.687 50.306 61.0134C44.481 64.4688 38.1509 65.9529 31.4229 65.4612C16.3933 64.3749 4.0907 53.3604 1.44868 38.4658C-1.63592 21.1037 9.51333 4.80096 26.2327 0.938736C27.9047 0.554301 29.6347 0.411256 31.3335 0.147516C31.5525 0.116224 31.7716 0.0491719 31.9906 0C33.1082 0 34.2258 0 35.3435 0ZM57.3648 50.5844C62.2331 43.7853 64.1866 36.3157 62.8857 28.1353C61.5759 19.9012 57.3558 13.3837 50.5653 8.59614C38.7365 0.250329 22.4239 1.85512 12.4459 12.2661C2.20418 22.9543 1.35927 39.0872 10.3091 50.8616C19.0577 62.3723 37.0869 67.0481 51.5622 56.4627C57.6285 62.5421 63.7128 68.6395 69.7344 74.6697C71.7059 72.7118 73.6461 70.7851 75.6175 68.8272C69.5601 62.7746 63.4803 56.6952 57.3692 50.5844H57.3648Z" fill="#ca262f"/>
<path d="M23.966 27.9609H43.4526V47.4866H23.966V27.9609ZM27.1266 44.286H40.216V31.1616H27.1266V44.286Z" fill="#ca262f"/>
<path d="M23.9168 9.95068H27.0551V19.651H40.2786V9.95515H43.4526C43.4705 10.2234 43.4973 10.4692 43.4973 10.7151C43.4973 14.4968 43.4839 18.2786 43.5152 22.0648C43.5197 22.7354 43.323 22.9276 42.6524 22.9276C36.6844 22.9052 30.7208 22.9052 24.7528 22.9276C24.0912 22.9276 23.89 22.7533 23.8945 22.0738C23.9258 18.292 23.9079 14.5103 23.9079 10.724V9.95068H23.9168Z" fill="#ca262f"/>
<path d="M48.5266 27.9609H58.2229C58.2229 28.8952 58.2542 29.8026 58.1916 30.7012C58.1827 30.8442 57.7803 31.0766 57.5523 31.0766C55.8536 31.1079 54.1503 31.1124 52.4516 31.0856C51.866 31.0766 51.6514 31.242 51.6558 31.8589C51.6782 35.7659 51.6782 39.6773 51.6558 43.5842C51.6558 44.1966 51.857 44.3888 52.4516 44.3575C53.2563 44.3173 54.0654 44.3486 54.9237 44.3486V47.4732H48.5266V27.9609Z" fill="#ca262f"/>
<path d="M18.8027 47.4822H14.1043V44.4112C14.3055 44.3934 14.52 44.3576 14.7391 44.3487C15.7047 44.3263 15.7047 44.3263 15.7047 43.3295C15.7047 39.5745 15.7047 35.8196 15.7047 32.0602V31.1125H9.19128V27.9565H18.8027V47.4822Z" fill="#ca262f"/>
<path d="M20.6356 55.6893V52.6094H46.7116V55.6893H20.6356Z" fill="#ca262f"/>
<path d="M15.6957 19.709V14.8589H18.8071C18.8295 15.0332 18.8653 15.2031 18.8653 15.3685C18.8653 17.6483 18.8518 19.9325 18.8787 22.2123C18.8831 22.7443 18.7133 22.9186 18.1857 22.9141C16.487 22.8918 14.7882 22.8963 13.0895 22.9141C12.6111 22.9186 12.4278 22.7532 12.4055 22.257C12.2803 19.718 12.2714 19.718 14.8195 19.709C15.0699 19.709 15.3202 19.709 15.6913 19.709H15.6957Z" fill="#ca262f"/>
<path d="M54.9416 18.0995V21.2376H48.531V14.8721H51.6692C51.6692 15.6722 51.7005 16.4947 51.6603 17.3173C51.6335 17.9073 51.8212 18.1398 52.4337 18.1085C53.2384 18.0638 54.052 18.0995 54.9416 18.0995Z" fill="#ca262f"/>
</g>
<defs>
<clipPath id="clip0_167_249">
<rect width="78" height="78" fill="white" transform="translate(0.934387)"/>
</clipPath>
</defs>
</svg>
