<svg width="78" height="79" viewBox="0 0 78 79" fill="none" xmlns="http://www.w3.org/2000/svg">
<g clip-path="url(#clip0_167_287)">
<path d="M41.4404 0.937012C42.8937 1.13648 44.3592 1.27285 45.7982 1.54152C56.6631 3.58505 65.228 9.20271 71.4298 18.3294C76.0277 25.095 78.2829 32.6524 77.9654 40.8183C77.4097 55.1027 70.9006 66.0367 58.7514 73.5229C52.4641 77.3962 45.5112 79.1405 38.137 78.9187C26.7673 78.5767 17.258 74.0989 9.69861 65.6093C4.51855 59.7922 1.45734 52.9513 0.354157 45.2372C0.217786 44.2866 0.118052 43.33 0 42.3774C0 40.7532 0 39.1269 0 37.5027C0.111946 36.5746 0.207609 35.6444 0.339909 34.7203C1.57742 26.0781 5.23501 18.6204 11.3961 12.439C17.2194 6.59741 24.2129 2.93169 32.3606 1.52524C33.7548 1.28506 35.1633 1.13037 36.5657 0.937012C38.1899 0.937012 39.8162 0.937012 41.4404 0.937012ZM39.0305 3.3754C18.9067 3.36115 2.47096 19.746 2.43839 39.8556C2.40582 60.0242 18.7825 76.4681 38.9369 76.5068C59.0872 76.5454 75.5494 60.1341 75.5677 39.9879C75.586 19.8254 59.1849 3.38965 39.0305 3.3754Z" fill="#ca262f"/>
<path d="M45.7595 64.3309C42.6209 64.2495 39.8284 63.0649 37.1865 61.5139C30.8096 57.7688 25.6316 52.6967 21.2148 46.8205C18.8904 43.7288 16.9181 40.4355 15.7722 36.6904C14.5978 32.8578 15.473 29.5971 18.3144 26.8208C18.7866 26.3608 19.2445 25.8845 19.7269 25.4347C21.7297 23.5601 24.62 23.5357 26.5984 25.4225C28.0659 26.8229 29.507 28.2578 30.9053 29.7294C32.79 31.7159 32.7514 34.6041 30.8727 36.5988C30.5938 36.8939 30.2967 37.1708 30.0158 37.4659C29.3543 38.16 29.3482 38.683 30.028 39.371C31.2757 40.635 32.5376 41.8867 33.7935 43.1426C35.8574 45.2065 37.9192 47.2724 39.9851 49.3322C40.8298 50.1748 41.3366 50.1972 42.1528 49.324C43.3028 48.0947 44.583 47.1869 46.3599 47.2093C47.6382 47.2256 48.7658 47.6225 49.6776 48.5058C51.1716 49.953 52.6635 51.4083 54.0903 52.9206C55.9527 54.8969 55.9262 57.7383 54.07 59.7289C52.7897 61.1028 51.483 62.4441 49.7753 63.3275C48.5073 63.9849 47.1883 64.3452 45.7595 64.3309ZM20.5411 28.0197C20.1075 28.4817 19.7351 28.8582 19.387 29.2592C17.8829 30.9832 17.2417 32.9636 17.9439 35.1863C18.4833 36.8939 19.039 38.6383 19.8959 40.1953C24.0521 47.7425 29.8631 53.7917 37.0094 58.5626C39.3826 60.1482 41.935 61.3694 44.8069 61.8254C47.3288 62.2263 49.9239 60.8321 51.3812 58.8415C50.7523 58.2349 50.105 57.6264 49.4761 56.9995C48.0351 55.5686 46.592 54.1377 45.1713 52.6885C44.4915 51.9945 44.6014 51.0134 45.3748 50.6409C46.0302 50.3254 46.537 50.6002 47.0052 51.0724C48.7576 52.8391 50.5203 54.5936 52.2829 56.3522C52.4661 56.5354 52.6656 56.7003 52.924 56.9364C53.1398 55.9614 52.924 55.2185 52.3521 54.6262C50.9396 53.1668 49.5107 51.7217 48.0452 50.3173C47.054 49.3688 45.6272 49.4136 44.5993 50.3438C44.2798 50.6328 43.9887 50.9544 43.6793 51.2536C42.0836 52.7903 40.0401 52.7923 38.4626 51.2475C37.447 50.2522 36.4496 49.2385 35.4442 48.2331C33.0913 45.8822 30.7384 43.5334 28.3895 41.1784C26.6269 39.4117 26.6371 37.4211 28.4058 35.6361C28.6562 35.3837 28.9167 35.1415 29.1528 34.8769C30.083 33.8327 30.1216 32.4324 29.163 31.433C27.7586 29.9675 26.3114 28.5387 24.8541 27.1261C24.2414 26.5338 23.4822 26.3486 22.4197 26.6417C22.7597 26.9165 22.9917 27.0712 23.185 27.2645C24.9497 29.019 26.7103 30.7776 28.4628 32.5423C29.0897 33.1733 29.1365 33.8999 28.6175 34.4189C28.0964 34.94 27.3779 34.8932 26.7409 34.2622C25.3873 32.9229 24.0419 31.5755 22.6986 30.224C21.9842 29.5055 21.282 28.7768 20.5411 28.0197Z" fill="#ca262f"/>
<path d="M49.6044 15.561C56.5409 15.5671 62.2298 20.9182 62.7387 27.9158C63.2231 34.5776 58.2669 40.7326 51.5929 41.7422C48.8268 42.1594 46.1951 41.7096 43.6753 40.4986C43.3578 40.3459 42.8896 40.3133 42.5538 40.4192C41.127 40.8629 39.7226 41.3758 38.3141 41.8745C37.7788 42.0638 37.2659 42.1167 36.8221 41.6933C36.3866 41.2781 36.3723 40.7835 36.5372 40.2218C36.9768 38.7135 37.4104 37.2033 37.7727 35.6767C37.8724 35.2554 37.8378 34.716 37.6566 34.3273C33.5818 25.6016 39.9648 15.559 49.6044 15.5651V15.561ZM39.4356 38.8926C40.5123 38.5202 41.4567 38.2271 42.3726 37.8648C43.0687 37.588 43.6549 37.6531 44.3124 38.0317C46.3498 39.2041 48.548 39.6478 50.8989 39.3649C57.0274 38.626 61.3424 32.7173 60.1273 26.6966C58.8796 20.5091 52.7185 16.6968 46.7121 18.3902C40.1011 20.2546 36.9036 27.6838 40.1317 33.737C40.4818 34.3965 40.5652 34.9867 40.3393 35.689C40.0157 36.6965 39.7612 37.7264 39.4356 38.8906V38.8926Z" fill="#ca262f"/>
<path d="M49.5941 24.8631C47.7684 24.8631 45.9406 24.8672 44.1149 24.8631C43.1949 24.8591 42.6718 24.4255 42.6555 23.6785C42.6392 22.9031 43.1806 22.4308 44.1373 22.4308C47.7643 22.4247 51.3934 22.4247 55.0205 22.4308C55.9771 22.4308 56.5287 22.899 56.5226 23.6643C56.5144 24.4296 55.973 24.8631 54.9981 24.8652C53.1968 24.8692 51.3954 24.8652 49.5941 24.8652V24.8631Z" fill="#ca262f"/>
<path d="M49.6694 27.5803C51.4708 27.5803 53.2721 27.5742 55.0714 27.5823C55.9832 27.5864 56.5144 28.0362 56.5206 28.7771C56.5287 29.518 55.9852 30.0105 55.0958 30.0126C51.4178 30.0207 47.7399 30.0207 44.062 30.0126C43.1725 30.0105 42.6392 29.5139 42.6535 28.7649C42.6677 28.0403 43.1725 27.5884 44.0375 27.5844C45.9142 27.5722 47.7908 27.5803 49.6694 27.5803Z" fill="#ca262f"/>
<path d="M49.5392 35.1496C47.7135 35.1496 45.8877 35.1618 44.062 35.1456C43.1115 35.1374 42.5497 34.5512 42.6657 33.7513C42.7573 33.1142 43.2356 32.7316 44.0457 32.7214C45.6435 32.7031 47.2392 32.7133 48.837 32.7133C50.8907 32.7133 52.9444 32.7194 54.9981 32.7112C55.6576 32.7092 56.2153 32.868 56.4636 33.5498C56.7567 34.3599 56.1522 35.1293 55.1691 35.1415C53.2925 35.1639 51.4158 35.1476 49.5412 35.1496H49.5392Z" fill="#ca262f"/>
</g>
<defs>
<clipPath id="clip0_167_287">
<rect width="77.9959" height="78" fill="#ca262f" transform="translate(0 0.937012)"/>
</clipPath>
</defs>
</svg>
