<svg width="50" height="78" viewBox="0 0 50 78" fill="none" xmlns="http://www.w3.org/2000/svg">
<g clip-path="url(#clip0_167_269)">
<path d="M40.2625 0C40.4652 0.0875147 40.6638 0.185205 40.8705 0.260509C42.6175 0.905675 43.7342 2.37307 43.7728 4.23327C43.8194 6.46591 43.791 8.70059 43.7951 10.9332C43.7951 11.2039 43.7951 11.4766 43.7951 11.7819C44.3544 11.8409 44.8347 11.8511 45.2948 11.9488C47.6478 12.4515 49.2935 14.4684 49.3583 16.8944C49.3644 17.1223 49.3624 17.3503 49.3624 17.5803C49.3624 35.8057 49.3624 54.0312 49.3624 72.2566C49.3624 75.9322 47.2972 78 43.6268 78C31.1404 78 18.652 78 6.16556 78C2.60873 78 0.52124 75.8996 0.52124 72.3197C0.52124 54.0434 0.52124 35.767 0.52124 17.4907C0.52124 14.2527 2.09395 12.5248 5.26571 11.8165C7.12419 11.4013 8.89754 10.5974 10.7053 9.95632C19.6734 6.77119 28.6395 3.582 37.6055 0.394834C37.9845 0.260509 38.3656 0.13229 38.7466 0C39.2532 0 39.7579 0 40.2646 0H40.2625ZM2.94718 44.8584C2.94718 54.021 2.94718 63.1856 2.94718 72.3482C2.94718 74.5544 3.94634 75.5618 6.13516 75.5618C18.6722 75.5618 31.2093 75.5618 43.7464 75.5618C45.9352 75.5618 46.9364 74.5523 46.9364 72.3482C46.9364 54.0474 46.9364 35.7467 46.9364 17.4459C46.9364 15.2805 45.9413 14.2832 43.7849 14.2832C31.2235 14.2832 18.6601 14.2832 6.09868 14.2832C3.94026 14.2832 2.94921 15.2805 2.94718 17.4459C2.94718 26.5841 2.94718 35.7223 2.94718 44.8584ZM13.1678 11.67C13.1779 11.7107 13.188 11.7514 13.1982 11.7921H41.3367C41.3488 11.5173 41.3671 11.2935 41.3671 11.0676C41.3691 8.9611 41.3752 6.85464 41.3671 4.74818C41.359 2.8656 40.1896 2.05558 38.4 2.6926C31.9795 4.97409 25.5589 7.26168 19.1384 9.54521C17.1482 10.2535 15.158 10.9597 13.1698 11.6679L13.1678 11.67Z" fill="#ca262f"/>
<path d="M13.5609 38.8547C14.6715 38.8547 15.7842 38.8425 16.8948 38.8567C18.5324 38.8771 19.5944 39.9354 19.6065 41.5839C19.6248 43.8166 19.6268 46.0472 19.6065 48.2798C19.5923 49.8897 18.5587 50.9521 16.9435 50.9745C14.6959 51.007 12.4483 51.007 10.2007 50.9745C8.55298 50.95 7.53761 49.8816 7.52545 48.2127C7.51126 46.0065 7.50924 43.8003 7.52545 41.5921C7.53964 39.9069 8.60365 38.8689 10.302 38.8527C11.3883 38.8425 12.4746 38.8527 13.5609 38.8527V38.8547ZM17.1441 41.3458H9.99598C9.97774 41.5656 9.94937 41.7386 9.94937 41.9116C9.94531 43.8919 9.96963 45.8722 9.93315 47.8504C9.92302 48.4549 10.1581 48.5648 10.6891 48.5587C12.6104 48.5342 14.5317 48.5505 16.451 48.5464C16.6719 48.5464 16.8908 48.5139 17.1401 48.4935V41.3458H17.1441Z" fill="#ca262f"/>
<path d="M13.563 21.791C14.6736 21.791 15.7863 21.7788 16.8969 21.793C18.5325 21.8134 19.5944 22.8737 19.6066 24.5223C19.6248 26.7549 19.6269 28.9855 19.6066 31.2182C19.5924 32.828 18.5568 33.8884 16.9415 33.9128C14.6939 33.9454 12.4463 33.9454 10.1987 33.9128C8.55102 33.8884 7.53768 32.8199 7.52552 31.151C7.51133 28.9692 7.51336 26.7895 7.52552 24.6078C7.53565 22.8575 8.57737 21.8093 10.3061 21.7951C11.3924 21.7849 12.4787 21.7951 13.565 21.7951L13.563 21.791ZM10.0021 24.2536C9.97984 24.5182 9.95146 24.7156 9.95146 24.913C9.94741 26.8669 9.97173 28.8227 9.93525 30.7765C9.92512 31.3688 10.1359 31.5031 10.6811 31.495C12.5254 31.4665 14.3717 31.4848 16.216 31.4848C16.5118 31.4848 16.8057 31.4848 17.1219 31.4848V24.2557H10.0021V24.2536Z" fill="#ca262f"/>
<path d="M19.6106 61.9583C19.6106 63.0491 19.6187 64.14 19.6106 65.2309C19.5944 66.9425 18.5831 68.0171 16.9009 68.0395C14.6777 68.068 12.4544 68.068 10.2331 68.0395C8.57531 68.0192 7.5417 66.9629 7.52751 65.3062C7.50927 63.0736 7.50724 60.8409 7.52751 58.6103C7.54373 56.9679 8.62192 55.9258 10.2696 55.9197C12.4665 55.9096 14.6655 55.9096 16.8624 55.9197C18.5405 55.9279 19.5883 56.9862 19.6086 58.6876C19.6208 59.7785 19.6106 60.8694 19.6106 61.9603V61.9583ZM17.1421 58.4047H9.94738C9.94738 60.6089 9.96764 62.7601 9.93319 64.9114C9.92306 65.5179 10.1622 65.6237 10.6912 65.6176C12.6125 65.5932 14.5338 65.6094 16.4551 65.6054C16.676 65.6054 16.8949 65.5708 17.1421 65.5504V58.4047Z" fill="#ca262f"/>
<path d="M32.9098 23.7145C35.4614 23.7145 38.013 23.7145 40.5646 23.7145C40.8422 23.7145 41.126 23.7064 41.3955 23.7593C41.9974 23.8774 42.3967 24.3251 42.3095 24.8787C42.2427 25.3 41.8657 25.7335 41.5171 26.0286C41.3104 26.2016 40.8888 26.1446 40.5625 26.1466C35.4593 26.1527 30.3561 26.1507 25.2529 26.1507C25.178 26.1507 25.1009 26.1507 25.026 26.1507C24.0167 26.1365 23.435 25.6867 23.433 24.9235C23.433 24.1582 23.9984 23.7186 25.028 23.7166C27.6546 23.7105 30.2832 23.7166 32.9098 23.7166V23.7145Z" fill="#ca262f"/>
<path d="M32.9138 40.7779C35.4654 40.7779 38.017 40.7779 40.5686 40.7779C40.8199 40.7779 41.0772 40.7698 41.3245 40.8064C41.971 40.9021 42.3156 41.3335 42.3358 41.9502C42.3561 42.5323 42.0521 42.976 41.4583 43.1286C41.1928 43.1958 40.909 43.21 40.6334 43.21C35.4795 43.2141 30.3277 43.2141 25.1738 43.21C24.8982 43.21 24.6124 43.2019 24.349 43.1327C23.7288 42.9719 23.4045 42.5282 23.4491 41.9014C23.4937 41.2786 23.8605 40.8715 24.503 40.8003C24.8273 40.7637 25.1597 40.7759 25.4859 40.7759C27.9626 40.7759 30.4371 40.7759 32.9138 40.7759V40.7779Z" fill="#ca262f"/>
<path d="M32.9321 57.8409C35.585 57.8409 38.2379 57.845 40.8888 57.8389C41.4563 57.8389 41.9447 57.963 42.2163 58.5186C42.5386 59.176 42.2163 59.9677 41.5131 60.1753C41.205 60.2649 40.8645 60.273 40.5402 60.275C35.4371 60.2811 30.3339 60.2791 25.2327 60.2791C25.182 60.2791 25.1313 60.2791 25.0807 60.2791C24.0187 60.2649 23.4188 59.809 23.435 59.0254C23.4492 58.2622 24.0106 57.845 25.0523 57.8429C27.6789 57.8389 30.3075 57.8429 32.9341 57.8429L32.9321 57.8409Z" fill="#ca262f"/>
<path d="M28.2828 66.1224C27.1458 66.1224 26.0109 66.1285 24.8739 66.1204C23.9801 66.1123 23.437 65.6462 23.4349 64.9115C23.4329 64.1808 23.9842 63.6924 24.8678 63.6883C27.1661 63.6781 29.4643 63.6781 31.7606 63.6883C32.6503 63.6924 33.1671 64.1808 33.1468 64.942C33.1286 65.6665 32.6239 66.1102 31.7646 66.1184C30.6033 66.1306 29.442 66.1204 28.2808 66.1204L28.2828 66.1224Z" fill="#ca262f"/>
<path d="M28.2828 32.0019C27.1215 32.0019 25.9602 32.0141 24.7989 31.9978C23.9639 31.9876 23.439 31.5032 23.435 30.7909C23.4309 30.0867 23.97 29.5738 24.7928 29.5698C27.1418 29.5555 29.4887 29.5555 31.8376 29.5698C32.6685 29.5759 33.1691 30.0847 33.1489 30.8194C33.1306 31.5175 32.6402 31.9815 31.8437 31.9937C30.6581 32.012 29.4704 31.9978 28.2828 31.9998V32.0019Z" fill="#ca262f"/>
<path d="M28.3314 49.0653C27.1701 49.0653 26.0089 49.0734 24.8476 49.0632C23.9639 49.0551 23.4208 48.5666 23.435 47.8279C23.4492 47.1257 23.9882 46.6373 24.8192 46.6332C27.1418 46.621 29.4644 46.621 31.789 46.6332C32.6402 46.6373 33.1428 47.1074 33.1489 47.836C33.157 48.5992 32.6483 49.0531 31.7403 49.0612C30.6034 49.0734 29.4684 49.0632 28.3314 49.0632V49.0653Z" fill="#ca262f"/>
</g>
<defs>
<clipPath id="clip0_167_269">
<rect width="48.8411" height="78" fill="white" transform="translate(0.52124)"/>
</clipPath>
</defs>
</svg>
